<svg xmlns="http://www.w3.org/2000/svg" id="Слой_1" viewBox="0 0 496 496">
    <style>
        .st0{fill:#85b6dd}
    </style>
    <path d="M480 480V296c0-4.4-3.6-8-8-8H280c-4.4 0-8 3.6-8 8v184h-48V296c0-4.4-3.6-8-8-8H24c-4.4 0-8 3.6-8 8v184H0v16h496v-16h-16zm-96-176v64h-16v-64h16zm-256 0v64h-16v-64h16zM32 480v-64h48v-16H32v-96h64v72c0 4.4 3.6 8 8 8h32c4.4 0 8-3.6 8-8v-72h64v176H32zm256 0v-64h48v-16h-48v-96h64v72c0 4.4 3.6 8 8 8h32c4.4 0 8-3.6 8-8v-72h64v176H288z"/>
    <path d="M352 400h16v16h-16v-16z"/>
    <path d="M368 432h48v16h-48v-16zM432 432h16v16h-16v-16zM97.1 398.9h16v16h-16v-16zM112 432h48v16h-48v-16z" class="st0"/>
    <path d="M176 432h16v16h-16v-16zM128 80h24v80c0 61.8 50.2 112 112 112s112-50.2 112-112V8c0-4.4-3.6-8-8-8h-64c-4.4 0-8 3.6-8 8v152c0 17.6-14.4 32-32 32s-32-14.4-32-32V80h24c3.2 0 6.2-1.9 7.4-4.9 1.2-3 .6-6.4-1.7-8.7l-64-64c-3.1-3.1-8.2-3.1-11.3 0l-64 64c-2.3 2.3-3 5.7-1.7 8.7 1.1 3 4.1 4.9 7.3 4.9zm64-60.7L236.7 64H224c-4.4 0-8 3.6-8 8v88c0 26.5 21.5 48 48 48s48-21.5 48-48V16h48v144c0 52.9-43.1 96-96 96s-96-43.1-96-96V72c0-4.4-3.6-8-8-8h-12.7L192 19.3z"/>
</svg>
