<svg xmlns="http://www.w3.org/2000/svg" id="Capa_1" viewBox="0 0 480 480">
    <style>
        .st0{fill:#85b6dd}
    </style>
    <path d="M456 288h-72V168h72c4.4 0 8-3.6 8-8v-39.4L479.9 9.1c.6-4.4-2.4-8.4-6.8-9.1H248c-4.4 0-8 3.6-8 8 0 .4 0 .8.1 1.1L256 120.6V160c0 4.4 3.6 8 8 8h72v120h-8c-13.3 0-24 10.7-24 24s10.7 24 24 24h8v16h-56l7.5-112h8.5c4.4 0 8-3.6 8-8v-32c0-4.4-3.6-8-8-8h-56.6c-2.5-17.3-13-32.5-28.3-41 12.7-28.2.1-61.4-28.1-74-28.2-12.7-61.4-.1-74 28.1-2.2 4.9-3.7 10.1-4.4 15.4-43.9-4.7-83.3 27-88 70.8 0 .2 0 .5-.1.7H8c-4.4 0-8 3.6-8 8v32c0 4.4 3.6 8 8 8h8.5L32 472.5c.3 4.2 3.8 7.5 8 7.5h432c4.4 0 8-3.6 8-8V312c0-13.3-10.7-24-24-24zM257.2 16H288v48h16V16h16v16h16V16h48v24h16V16h16v48h16V16h30.8l-13.7 96H270.9l-13.7-96zM272 152v-24h176v24H272zm96 16v120h-16V168h16zm-80 40v16H168v-16h120zm-184.2-71.5c2.2.3 4.4.7 6.5 1.2h.3c9.4 2.2 18.2 6.5 25.7 12.6l10.1-12.4c-7.7-6.2-16.5-10.9-25.9-13.9 2.3-21.9 21.9-37.8 43.8-35.5 21.9 2.3 37.8 21.9 35.5 43.8-.7 6.5-2.9 12.7-6.6 18.1-2.5 3.7-1.5 8.6 2.2 11.1.6.4 1.2.7 1.8.9 13.2 4.7 23.1 15.9 25.9 29.7H160c-4.4 0-8 3.6-8 8v72c0 4.4-3.6 8-8 8s-8-3.6-8-8v-16c0-13.3-10.7-24-24-24s-24 10.7-24 24v56c0 4.4-3.6 8-8 8s-8-3.6-8-8V200c0-4.4-3.6-8-8-8H32.5c4.4-35 36.3-59.8 71.3-55.5zM16 224v-16h40v16H16zm208 152v88H47.5L32.6 240H56v72c0 13.3 10.7 24 24 24s24-10.7 24-24v-56c0-4.4 3.6-8 8-8s8 3.6 8 8v16c0 13.3 10.7 24 24 24s24-10.7 24-24v-32h103.4L264 352h-16c-13.3 0-24 10.7-24 24zm240 88h-24v-40h-16v40h-24v-40h-16v40h-24v-40h-16v40h-24v-40h-16v40h-24v-40h-16v40h-24v-64h224v64zm0-80H240v-8c0-4.4 3.6-8 8-8h176c13.3 0 24-10.7 24-24s-10.7-24-24-24h-96c-4.4 0-8-3.6-8-8s3.6-8 8-8h128c4.4 0 8 3.6 8 8v72zm-112-32v-16h16v16h-16zm32 0v-16h40c4.4 0 8 3.6 8 8s-3.6 8-8 8h-40z"/>
    <path d="M32 80V64H16v16H0v16h16v16h16V96h16V80zM456 224v-16h-16v16h-16v16h16v16h16v-16h16v-16zM152 16V0h-16v16h-16v16h16v16h16V32h16V16zM288 80h16v16h-16z" class="st0"/>
</svg>
