<svg xmlns="http://www.w3.org/2000/svg" width="13.843" height="11.03" viewBox="0 0 13.843 11.03">
  <defs>
    <style>
      .cls-1 {
        fill-rule: evenodd;
      }
    </style>
  </defs>
  <path id="Forma_1_копия_10" data-name="Forma 1 копия 10" class="cls-1" d="M524.4,4029.58a6,6,0,0,1-1.633.44,2.811,2.811,0,0,0,1.247-1.54,5.587,5.587,0,0,1-1.8.67,2.88,2.88,0,0,0-2.071-.88,2.81,2.81,0,0,0-2.833,2.79,2.748,2.748,0,0,0,.066.63,8.062,8.062,0,0,1-5.844-2.91,2.751,2.751,0,0,0,.871,3.72,2.912,2.912,0,0,1-1.28-.34v0.03a2.807,2.807,0,0,0,2.271,2.73,2.966,2.966,0,0,1-.743.09,3.158,3.158,0,0,1-.537-0.04,2.865,2.865,0,0,0,2.649,1.94,5.764,5.764,0,0,1-3.515,1.18,5.056,5.056,0,0,1-.679-0.04,8.051,8.051,0,0,0,4.35,1.25,7.935,7.935,0,0,0,8.069-7.92c0-.12,0-0.24-0.011-0.36A5.59,5.59,0,0,0,524.4,4029.58Z" transform="translate(-510.563 -4028.28)"/>
</svg>
