<svg xmlns="http://www.w3.org/2000/svg" id="Слой_1" viewBox="0 0 496 496">
    <style>
        .st0{fill:#85b6dd}
    </style>
    <path d="M120 208v-16c-39.7 0-72-32.3-72-72H32c0 48.5 39.5 88 88 88z" class="st0"/>
    <path d="M120 176c30.9 0 56-25.1 56-56s-25.1-56-56-56-56 25.1-56 56 25.1 56 56 56zm0-96c22.1 0 40 17.9 40 40s-17.9 40-40 40-40-17.9-40-40 17.9-40 40-40z"/>
    <path d="M120 144c13.2 0 24-10.8 24-24s-10.8-24-24-24-24 10.8-24 24 10.8 24 24 24zm0-32c4.4 0 8 3.6 8 8s-3.6 8-8 8-8-3.6-8-8 3.6-8 8-8z" class="st0"/>
    <path d="M496 381.7v-59.4l-21.6-7.6c-2.4-8-5.6-15.7-9.5-23l10-20.6-7.7-7.7c-3.6-4.7-9.4-10.9-13.9-15.4-5.5-5.6-11.9-11.7-16.2-15.4l-53.2-46.5 4.6-13.7 18.5 9.3 30.8-30.8-9.3-18.5 19.6-6.6V82.2l-19.6-6.5 9.3-18.5L407 26.4l-18.5 9.3-6.7-19.7h-43.5l-6.5 19.6-18.5-9.3-30.8 30.8 9.3 18.5-19.8 6.6v6.1l-65.8-57.6C183.5 10.9 154.4 0 124.3 0v.2c-1.4 0-2.8-.2-4.3-.2C53.8 0 0 53.8 0 120c0 1.5.2 2.9.2 4.3H0c0 30.1 10.9 59.2 30.8 81.8L88.4 272h-6.1l-6.5 19.6-18.5-9.3-30.8 30.8 9.3 18.5-19.8 6.6v43.5l19.6 6.5-9.3 18.5 30.8 30.8 18.5-9.3 6.5 19.7h43.5l6.5-19.6 18.5 9.3 30.8-30.8-9.3-18.5 13.8-4.6 46.4 53.1c3.6 4.2 9.1 9.9 14.2 15.1 4.9 4.9 11.6 11.3 16.6 15.2l7.8 7.8 20.6-10c7.3 3.9 15 7.1 23 9.5l7.6 21.6h59.4l7.6-21.6c8-2.4 15.7-5.6 23-9.5l20.6 10 42-42-10-20.6c3.9-7.3 7.1-15 9.5-23l21.8-7.6zm-256.8-89.9c-3.9 7.3-7.1 15-9.5 23l-21.6 7.6v59.4l21.6 7.6c2.4 8 5.6 15.7 9.5 23l-2.4 5L73.4 230.6c14.3 6.1 30.1 9.4 46.6 9.4 66.2 0 120-53.8 120-120 0-16.5-3.4-32.3-9.4-46.6l186.8 163.3-5.1 2.5c-7.3-3.9-15-7.1-23-9.5l-7.6-21.6h-59.4l-7.6 21.6c-8 2.4-15.7 5.6-23 9.5l-20.6-10-42 42 10.1 20.6zm48.8-198l18.4-6.1 1.3-3.5 1.2-3 1.6-3.5-8.6-17.3 14.5-14.5 17.3 8.6 3.5-1.6 3-1.2 3.5-1.3 6.1-18.4h20.5l6.1 18.4 3.5 1.3 3 1.2 3.5 1.6 17.3-8.6 14.5 14.5-8.6 17.3 1.6 3.5 1.2 3 1.3 3.5 18.4 6.1v20.5l-18.4 6.1-1.3 3.5-1.2 3-1.6 3.5 8.6 17.3-14.5 14.5-17.3-8.6-3.5 1.6-3 1.2-3.5 1.3-5.7 17-82.7-72.4v-8.5zM120 16c57.3 0 104 46.7 104 104s-46.7 104-104 104S16 177.3 16 120 62.7 16 120 16zm37.6 360.4l-1.3 3.5-1.2 3-1.6 3.5 8.6 17.3-14.5 14.5-17.3-8.6-3.5 1.6-3 1.2-3.5 1.3-6.1 18.4H93.8l-6.1-18.4-3.5-1.3-3-1.2-3.5-1.6-17.3 8.6-14.5-14.5 8.6-17.3-1.6-3.5-1.2-3-1.3-3.5-18.4-6.2v-20.5l18.4-6.1 1.3-3.5 1.2-3 1.6-3.5-8.6-17.3 14.5-14.5 17.3 8.6 3.5-1.6 3-1.2 3.5-1.3 6.1-18.4h8.6l72.3 82.7-17.1 5.8zm303.6.5l-1.1 4.1c-2.5 9.5-6.3 18.6-11.1 27l-2.1 3.7 8.7 17.9-25.9 25.9-17.9-8.7-3.7 2.1c-8.4 4.8-17.5 8.6-27 11.1l-4.1 1.1-6.6 18.8h-36.6l-6.6-18.8-4.1-1.1c-9.5-2.5-18.6-6.3-27-11.1l-3.7-2.1-17.9 8.7-25.9-25.9 8.7-17.9-2.1-3.7c-4.8-8.4-8.6-17.5-11.1-27l-1.1-4.1-18.8-6.6v-36.6l18.8-6.6 1.1-4.1c2.5-9.5 6.3-18.6 11.1-27l2.1-3.7-8.7-17.9 25.9-25.9 17.9 8.7 3.7-2.1c8.4-4.8 17.5-8.6 27-11.1l4.1-1.1 6.6-18.8h36.6l6.6 18.8 4.1 1.1c9.5 2.5 18.6 6.3 27 11.1l3.7 2.1 17.9-8.7 25.9 25.9-8.7 17.9 2.1 3.7c4.8 8.4 8.6 17.5 11.1 27l1.1 4.1 18.8 6.6v36.6l-18.8 6.6z"/>
    <path d="M352 272c-44.1 0-80 35.9-80 80s35.9 80 80 80 80-35.9 80-80-35.9-80-80-80zm0 144c-35.3 0-64-28.7-64-64s28.7-64 64-64 64 28.7 64 64-28.7 64-64 64z"/>
    <path d="M352 304c-26.5 0-48 21.5-48 48s21.5 48 48 48 48-21.5 48-48-21.5-48-48-48zm0 80c-17.6 0-32-14.4-32-32s14.4-32 32-32 32 14.4 32 32-14.4 32-32 32zM400 104c0-22.1-17.9-40-40-40s-40 17.9-40 40 17.9 40 40 40 40-17.9 40-40zm-64 0c0-13.2 10.8-24 24-24s24 10.8 24 24-10.8 24-24 24-24-10.8-24-24z" class="st0"/>
    <path d="M64 360c0 22.1 17.9 40 40 40s40-17.9 40-40-17.9-40-40-40-40 17.9-40 40zm64 0c0 13.2-10.8 24-24 24s-24-10.8-24-24 10.8-24 24-24 24 10.8 24 24z"/>
</svg>
